<svg xmlns="http://www.w3.org/2000/svg" viewBox="0 0 512 512">
  <defs>
    <linearGradient id="bg" x1="0%" x2="100%" y1="0%" y2="100%">
      <stop offset="0%" stop-color="#0f172a" />
      <stop offset="100%" stop-color="#1d4ed8" />
    </linearGradient>
  </defs>
  <rect width="512" height="512" rx="112" fill="url(#bg)" />
  <circle cx="256" cy="256" r="156" fill="#38bdf8" opacity="0.18" />
  <path
    d="M166 152h64v142c0 38 18 57 54 57 29 0 51-8 64-18v57c-18 13-45 22-81 22-76 0-101-40-101-105V152zm138 0h66l49 92 51-92h42l-81 146 86 152h-67l-53-97-54 97h-43l87-152-83-146z"
    fill="#f8fafc"
  />
</svg>
